{
    "asset" : {
        "generator" : "Khronos glTF Blender I/O v1.2.75",
        "version" : "2.0"
    },
    "scene" : 0,
    "scenes" : [
        {
            "name" : "Scene",
            "nodes" : [
                0,
                1,
                2,
                3
            ]
        }
    ],
    "nodes" : [
        {
            "mesh" : 0,
            "name" : "Areas",
            "translation" : [
                0,
                42.555999755859375,
                0
            ]
        },
        {
            "mesh" : 1,
            "name" : "Router",
            "translation" : [
                4.435540676116943,
                -23.000898361206055,
                -1.435027837753296
            ]
        },
        {
            "mesh" : 2,
            "name" : "mainbuilding",
            "translation" : [
                0,
                42.555999755859375,
                0
            ]
        },
        {
            "mesh" : 3,
            "name" : "inside"
        }
    ],
    "meshes" : [
        {
            "name" : "Areas.001",
            "primitives" : [
                {
                    "attributes" : {
                        "POSITION" : 0,
                        "NORMAL" : 1,
                        "JOINTS_0" : 2,
                        "WEIGHTS_0" : 3
                    },
                    "indices" : 4
                }
            ]
        },
        {
            "name" : "Ways",
            "primitives" : [
                {
                    "attributes" : {
                        "POSITION" : 5,
                        "NORMAL" : 6,
                        "TEXCOORD_0" : 7
                    },
                    "indices" : 8
                }
            ]
        },
        {
            "name" : "Areas.002",
            "primitives" : [
                {
                    "attributes" : {
                        "POSITION" : 9,
                        "NORMAL" : 10,
                        "JOINTS_0" : 11,
                        "WEIGHTS_0" : 12
                    },
                    "indices" : 13
                }
            ]
        },
        {
            "name" : "Areas.004",
            "primitives" : [
                {
                    "attributes" : {
                        "POSITION" : 14,
                        "NORMAL" : 15,
                        "TEXCOORD_0" : 16,
                        "JOINTS_0" : 17,
                        "WEIGHTS_0" : 18
                    },
                    "indices" : 19
                }
            ]
        }
    ],
    "accessors" : [
        {
            "bufferView" : 0,
            "componentType" : 5126,
            "count" : 17688,
            "max" : [
                1146.326904296875,
                107.08623504638672,
                1190.5731201171875
            ],
            "min" : [
                -1076.800048828125,
                -39.91376495361328,
                -1053.0430908203125
            ],
            "type" : "VEC3"
        },
        {
            "bufferView" : 1,
            "componentType" : 5126,
            "count" : 17688,
            "type" : "VEC3"
        },
        {
            "bufferView" : 2,
            "componentType" : 5123,
            "count" : 17688,
            "type" : "VEC4"
        },
        {
            "bufferView" : 3,
            "componentType" : 5126,
            "count" : 17688,
            "type" : "VEC4"
        },
        {
            "bufferView" : 4,
            "componentType" : 5123,
            "count" : 29694,
            "type" : "SCALAR"
        },
        {
            "bufferView" : 5,
            "componentType" : 5126,
            "count" : 9232,
            "max" : [
                1158.323974609375,
                26.356964111328125,
                1167.5423583984375
            ],
            "min" : [
                -1087.1453857421875,
                26.356964111328125,
                -948.221435546875
            ],
            "type" : "VEC3"
        },
        {
            "bufferView" : 6,
            "componentType" : 5126,
            "count" : 9232,
            "type" : "VEC3"
        },
        {
            "bufferView" : 7,
            "componentType" : 5126,
            "count" : 9232,
            "type" : "VEC2"
        },
        {
            "bufferView" : 8,
            "componentType" : 5123,
            "count" : 13848,
            "type" : "SCALAR"
        },
        {
            "bufferView" : 9,
            "componentType" : 5126,
            "count" : 444,
            "max" : [
                99.90986633300781,
                130.8053741455078,
                20.750900268554688
            ],
            "min" : [
                -105.45439147949219,
                -39.91376495361328,
                -20.455154418945312
            ],
            "type" : "VEC3"
        },
        {
            "bufferView" : 10,
            "componentType" : 5126,
            "count" : 444,
            "type" : "VEC3"
        },
        {
            "bufferView" : 11,
            "componentType" : 5123,
            "count" : 444,
            "type" : "VEC4"
        },
        {
            "bufferView" : 12,
            "componentType" : 5126,
            "count" : 444,
            "type" : "VEC4"
        },
        {
            "bufferView" : 13,
            "componentType" : 5123,
            "count" : 762,
            "type" : "SCALAR"
        },
        {
            "bufferView" : 14,
            "componentType" : 5126,
            "count" : 174,
            "max" : [
                111.11859130859375,
                10.928900718688965,
                111.11859130859375
            ],
            "min" : [
                -111.11859130859375,
                -0.08600759506225586,
                -111.11859130859375
            ],
            "type" : "VEC3"
        },
        {
            "bufferView" : 15,
            "componentType" : 5126,
            "count" : 174,
            "type" : "VEC3"
        },
        {
            "bufferView" : 16,
            "componentType" : 5126,
            "count" : 174,
            "type" : "VEC2"
        },
        {
            "bufferView" : 17,
            "componentType" : 5123,
            "count" : 174,
            "type" : "VEC4"
        },
        {
            "bufferView" : 18,
            "componentType" : 5126,
            "count" : 174,
            "type" : "VEC4"
        },
        {
            "bufferView" : 19,
            "componentType" : 5123,
            "count" : 294,
            "type" : "SCALAR"
        }
    ],
    "bufferViews" : [
        {
            "buffer" : 0,
            "byteLength" : 212256,
            "byteOffset" : 0
        },
        {
            "buffer" : 0,
            "byteLength" : 212256,
            "byteOffset" : 212256
        },
        {
            "buffer" : 0,
            "byteLength" : 141504,
            "byteOffset" : 424512
        },
        {
            "buffer" : 0,
            "byteLength" : 283008,
            "byteOffset" : 566016
        },
        {
            "buffer" : 0,
            "byteLength" : 59388,
            "byteOffset" : 849024
        },
        {
            "buffer" : 0,
            "byteLength" : 110784,
            "byteOffset" : 908412
        },
        {
            "buffer" : 0,
            "byteLength" : 110784,
            "byteOffset" : 1019196
        },
        {
            "buffer" : 0,
            "byteLength" : 73856,
            "byteOffset" : 1129980
        },
        {
            "buffer" : 0,
            "byteLength" : 27696,
            "byteOffset" : 1203836
        },
        {
            "buffer" : 0,
            "byteLength" : 5328,
            "byteOffset" : 1231532
        },
        {
            "buffer" : 0,
            "byteLength" : 5328,
            "byteOffset" : 1236860
        },
        {
            "buffer" : 0,
            "byteLength" : 3552,
            "byteOffset" : 1242188
        },
        {
            "buffer" : 0,
            "byteLength" : 7104,
            "byteOffset" : 1245740
        },
        {
            "buffer" : 0,
            "byteLength" : 1524,
            "byteOffset" : 1252844
        },
        {
            "buffer" : 0,
            "byteLength" : 2088,
            "byteOffset" : 1254368
        },
        {
            "buffer" : 0,
            "byteLength" : 2088,
            "byteOffset" : 1256456
        },
        {
            "buffer" : 0,
            "byteLength" : 1392,
            "byteOffset" : 1258544
        },
        {
            "buffer" : 0,
            "byteLength" : 1392,
            "byteOffset" : 1259936
        },
        {
            "buffer" : 0,
            "byteLength" : 2784,
            "byteOffset" : 1261328
        },
        {
            "buffer" : 0,
            "byteLength" : 588,
            "byteOffset" : 1264112
        }
    ],
    "buffers" : [
        {
            "byteLength" : 1264700,
            "uri" : "data:application/octet-stream;base64,"
        }
    ]
}
